<svg width="26" height="26" viewBox="0 0 26 26" fill="none" xmlns="http://www.w3.org/2000/svg">
<path fill-rule="evenodd" clip-rule="evenodd" d="M7.02717 2.52794C8.05608 2.44583 9.03286 2.04124 9.81847 1.37175C11.6518 -0.190567 14.3481 -0.190567 16.1814 1.37175C16.967 2.04124 17.9438 2.44583 18.9727 2.52794C21.3738 2.71955 23.2804 4.62618 23.472 7.02724C23.5541 8.05614 23.9587 9.03293 24.6282 9.81853C26.1905 11.6518 26.1905 14.3482 24.6282 16.1815C23.9587 16.9671 23.5541 17.9439 23.472 18.9728C23.2804 21.3738 21.3738 23.2805 18.9727 23.4721C17.9438 23.5542 16.967 23.9588 16.1814 24.6283C14.3481 26.1906 11.6518 26.1906 9.81847 24.6283C9.03286 23.9588 8.05608 23.5542 7.02717 23.4721C4.62612 23.2805 2.71949 21.3738 2.52788 18.9728C2.44577 17.9439 2.04118 16.9671 1.37169 16.1815C-0.190628 14.3482 -0.190628 11.6518 1.37169 9.81853C2.04118 9.03293 2.44577 8.05614 2.52788 7.02724C2.71949 4.62618 4.62612 2.71955 7.02717 2.52794ZM18.9313 10.9314C19.5562 10.3065 19.5562 9.29348 18.9313 8.66864C18.3065 8.0438 17.2934 8.0438 16.6686 8.66864L11.4 13.9373L9.33132 11.8686C8.70648 11.2438 7.69342 11.2438 7.06858 11.8686C6.44374 12.4935 6.44374 13.5065 7.06858 14.1314L10.2686 17.3314C10.8934 17.9562 11.9065 17.9562 12.5313 17.3314L18.9313 10.9314Z" fill="#10B981"/>
</svg>
